<mxfile host="Electron" modified="2023-11-19T17:54:41.568Z" agent="Mozilla/5.0 (X11; Linux x86_64) AppleWebKit/537.36 (KHTML, like Gecko) draw.io/22.1.2 Chrome/114.0.5735.289 Electron/25.9.4 Safari/537.36" etag="SiGPDGAQrY7MpiiG8Wti" version="22.1.2" type="device">
  <diagram name="Page-1" id="Z8BYK3D_dSG0EFalqZKv">
    <mxGraphModel dx="2261" dy="843" grid="1" gridSize="10" guides="1" tooltips="1" connect="1" arrows="1" fold="1" page="1" pageScale="1" pageWidth="827" pageHeight="1169" background="#ffffff" math="0" shadow="0">
      <root>
        <mxCell id="0" />
        <mxCell id="1" parent="0" />
        <mxCell id="Qq9gBeHtFWUo-H4OvYCq-1" value="AWS Cloud" style="points=[[0,0],[0.25,0],[0.5,0],[0.75,0],[1,0],[1,0.25],[1,0.5],[1,0.75],[1,1],[0.75,1],[0.5,1],[0.25,1],[0,1],[0,0.75],[0,0.5],[0,0.25]];outlineConnect=0;gradientColor=none;html=1;whiteSpace=wrap;fontSize=12;fontStyle=0;container=1;pointerEvents=0;collapsible=0;recursiveResize=0;shape=mxgraph.aws4.group;grIcon=mxgraph.aws4.group_aws_cloud_alt;strokeColor=#232F3E;fillColor=none;verticalAlign=top;align=left;spacingLeft=30;fontColor=#232F3E;dashed=0;" parent="1" vertex="1">
          <mxGeometry y="110" width="1220" height="720" as="geometry" />
        </mxCell>
        <mxCell id="Qq9gBeHtFWUo-H4OvYCq-2" value="Region" style="points=[[0,0],[0.25,0],[0.5,0],[0.75,0],[1,0],[1,0.25],[1,0.5],[1,0.75],[1,1],[0.75,1],[0.5,1],[0.25,1],[0,1],[0,0.75],[0,0.5],[0,0.25]];outlineConnect=0;gradientColor=none;html=1;whiteSpace=wrap;fontSize=12;fontStyle=0;container=1;pointerEvents=0;collapsible=0;recursiveResize=0;shape=mxgraph.aws4.group;grIcon=mxgraph.aws4.group_region;strokeColor=#147EBA;fillColor=none;verticalAlign=top;align=left;spacingLeft=30;fontColor=#147EBA;dashed=1;" parent="1" vertex="1">
          <mxGeometry x="10" y="140" width="1190" height="680" as="geometry" />
        </mxCell>
        <mxCell id="y6qu_ub7xlYDoSG335bv-4" value="" style="outlineConnect=0;dashed=0;verticalLabelPosition=bottom;verticalAlign=top;align=center;html=1;shape=mxgraph.aws3.application_load_balancer;fillColor=#F58534;gradientColor=none;" vertex="1" parent="Qq9gBeHtFWUo-H4OvYCq-2">
          <mxGeometry x="875.5" y="-42" width="69" height="72" as="geometry" />
        </mxCell>
        <mxCell id="y6qu_ub7xlYDoSG335bv-14" value="Security group" style="fillColor=none;strokeColor=#DD3522;verticalAlign=top;fontStyle=0;fontColor=#DD3522;whiteSpace=wrap;html=1;" vertex="1" parent="Qq9gBeHtFWUo-H4OvYCq-2">
          <mxGeometry x="860" y="-60" width="110" height="119" as="geometry" />
        </mxCell>
        <mxCell id="Qq9gBeHtFWUo-H4OvYCq-6" value="VPC" style="points=[[0,0],[0.25,0],[0.5,0],[0.75,0],[1,0],[1,0.25],[1,0.5],[1,0.75],[1,1],[0.75,1],[0.5,1],[0.25,1],[0,1],[0,0.75],[0,0.5],[0,0.25]];outlineConnect=0;gradientColor=none;html=1;whiteSpace=wrap;fontSize=12;fontStyle=0;container=1;pointerEvents=0;collapsible=0;recursiveResize=0;shape=mxgraph.aws4.group;grIcon=mxgraph.aws4.group_vpc;strokeColor=#248814;fillColor=none;verticalAlign=top;align=left;spacingLeft=30;fontColor=#AAB7B8;dashed=0;" parent="1" vertex="1">
          <mxGeometry x="20" y="170" width="1150" height="630" as="geometry" />
        </mxCell>
        <mxCell id="Qq9gBeHtFWUo-H4OvYCq-7" value="Private subnet" style="points=[[0,0],[0.25,0],[0.5,0],[0.75,0],[1,0],[1,0.25],[1,0.5],[1,0.75],[1,1],[0.75,1],[0.5,1],[0.25,1],[0,1],[0,0.75],[0,0.5],[0,0.25]];outlineConnect=0;gradientColor=none;html=1;whiteSpace=wrap;fontSize=12;fontStyle=0;container=1;pointerEvents=0;collapsible=0;recursiveResize=0;shape=mxgraph.aws4.group;grIcon=mxgraph.aws4.group_security_group;grStroke=0;strokeColor=#147EBA;fillColor=#E6F2F8;verticalAlign=top;align=left;spacingLeft=30;fontColor=#147EBA;dashed=0;" parent="Qq9gBeHtFWUo-H4OvYCq-6" vertex="1">
          <mxGeometry x="710" y="70" width="380" height="480" as="geometry" />
        </mxCell>
        <mxCell id="Qq9gBeHtFWUo-H4OvYCq-17" value="Security group" style="fillColor=none;strokeColor=#DD3522;verticalAlign=top;fontStyle=0;fontColor=#DD3522;whiteSpace=wrap;html=1;" parent="Qq9gBeHtFWUo-H4OvYCq-7" vertex="1">
          <mxGeometry x="204" y="230" width="150" height="140" as="geometry" />
        </mxCell>
        <mxCell id="Qq9gBeHtFWUo-H4OvYCq-20" value="" style="sketch=0;points=[[0,0,0],[0.25,0,0],[0.5,0,0],[0.75,0,0],[1,0,0],[0,1,0],[0.25,1,0],[0.5,1,0],[0.75,1,0],[1,1,0],[0,0.25,0],[0,0.5,0],[0,0.75,0],[1,0.25,0],[1,0.5,0],[1,0.75,0]];outlineConnect=0;fontColor=#232F3E;fillColor=#ED7100;strokeColor=#ffffff;dashed=0;verticalLabelPosition=bottom;verticalAlign=top;align=center;html=1;fontSize=12;fontStyle=0;aspect=fixed;shape=mxgraph.aws4.resourceIcon;resIcon=mxgraph.aws4.ec2;" parent="Qq9gBeHtFWUo-H4OvYCq-7" vertex="1">
          <mxGeometry x="256" y="96" width="78" height="78" as="geometry" />
        </mxCell>
        <mxCell id="Qq9gBeHtFWUo-H4OvYCq-21" value="" style="sketch=0;points=[[0,0,0],[0.25,0,0],[0.5,0,0],[0.75,0,0],[1,0,0],[0,1,0],[0.25,1,0],[0.5,1,0],[0.75,1,0],[1,1,0],[0,0.25,0],[0,0.5,0],[0,0.75,0],[1,0.25,0],[1,0.5,0],[1,0.75,0]];outlineConnect=0;fontColor=#232F3E;fillColor=#ED7100;strokeColor=#ffffff;dashed=0;verticalLabelPosition=bottom;verticalAlign=top;align=center;html=1;fontSize=12;fontStyle=0;aspect=fixed;shape=mxgraph.aws4.resourceIcon;resIcon=mxgraph.aws4.ec2;" parent="Qq9gBeHtFWUo-H4OvYCq-7" vertex="1">
          <mxGeometry x="240" y="261" width="78" height="78" as="geometry" />
        </mxCell>
        <mxCell id="Qq9gBeHtFWUo-H4OvYCq-25" value="Frontend&lt;br&gt;" style="text;strokeColor=none;align=center;fillColor=none;html=1;verticalAlign=middle;whiteSpace=wrap;rounded=0;fontColor=#000033;" parent="Qq9gBeHtFWUo-H4OvYCq-7" vertex="1">
          <mxGeometry x="260" y="174" width="70" height="30" as="geometry" />
        </mxCell>
        <mxCell id="Qq9gBeHtFWUo-H4OvYCq-27" value="MySql DB" style="text;strokeColor=none;align=center;fillColor=none;html=1;verticalAlign=middle;whiteSpace=wrap;rounded=0;fontColor=#000033;" parent="Qq9gBeHtFWUo-H4OvYCq-7" vertex="1">
          <mxGeometry x="240" y="339" width="70" height="30" as="geometry" />
        </mxCell>
        <mxCell id="Dbp7L5wmr_lRvwFm_IH9-3" value="" style="outlineConnect=0;dashed=0;verticalLabelPosition=bottom;verticalAlign=top;align=center;html=1;shape=mxgraph.aws3.route_table;fillColor=#F58536;gradientColor=none;" parent="Qq9gBeHtFWUo-H4OvYCq-7" vertex="1">
          <mxGeometry x="22" y="174" width="75" height="69" as="geometry" />
        </mxCell>
        <mxCell id="Qq9gBeHtFWUo-H4OvYCq-15" value="Security group" style="fillColor=none;strokeColor=#DD3522;verticalAlign=top;fontStyle=0;fontColor=#DD3522;whiteSpace=wrap;html=1;" parent="Qq9gBeHtFWUo-H4OvYCq-7" vertex="1">
          <mxGeometry x="200" y="64" width="150" height="140" as="geometry" />
        </mxCell>
        <mxCell id="y6qu_ub7xlYDoSG335bv-7" value="" style="image;aspect=fixed;perimeter=ellipsePerimeter;html=1;align=center;shadow=0;dashed=0;fontColor=#4277BB;labelBackgroundColor=default;fontSize=12;spacingTop=3;image=img/lib/ibm/vpc/LoadBalancerListener.svg;" vertex="1" parent="Qq9gBeHtFWUo-H4OvYCq-7">
          <mxGeometry x="80" y="30" width="60" height="60" as="geometry" />
        </mxCell>
        <mxCell id="y6qu_ub7xlYDoSG335bv-12" value="" style="endArrow=classic;html=1;rounded=0;strokeColor=#000000;strokeWidth=2;" edge="1" parent="Qq9gBeHtFWUo-H4OvYCq-7">
          <mxGeometry width="50" height="50" relative="1" as="geometry">
            <mxPoint x="140" y="50" as="sourcePoint" />
            <mxPoint x="280" y="100" as="targetPoint" />
            <Array as="points">
              <mxPoint x="280" y="50" />
              <mxPoint x="280" y="100" />
            </Array>
          </mxGeometry>
        </mxCell>
        <mxCell id="y6qu_ub7xlYDoSG335bv-13" style="edgeStyle=orthogonalEdgeStyle;rounded=0;orthogonalLoop=1;jettySize=auto;html=1;" edge="1" parent="Qq9gBeHtFWUo-H4OvYCq-7" source="Qq9gBeHtFWUo-H4OvYCq-15" target="Qq9gBeHtFWUo-H4OvYCq-15">
          <mxGeometry relative="1" as="geometry" />
        </mxCell>
        <mxCell id="Dbp7L5wmr_lRvwFm_IH9-8" value="" style="outlineConnect=0;dashed=0;verticalLabelPosition=bottom;verticalAlign=top;align=center;html=1;shape=mxgraph.aws3.internet_gateway;fillColor=#F58534;gradientColor=none;" parent="Qq9gBeHtFWUo-H4OvYCq-6" vertex="1">
          <mxGeometry x="-35" y="240" width="69" height="72" as="geometry" />
        </mxCell>
        <mxCell id="y6qu_ub7xlYDoSG335bv-10" value="" style="endArrow=classic;html=1;rounded=0;exitX=0.35;exitY=-0.067;exitDx=0;exitDy=0;exitPerimeter=0;strokeColor=#000000;strokeWidth=2;" edge="1" parent="Qq9gBeHtFWUo-H4OvYCq-6" source="y6qu_ub7xlYDoSG335bv-7" target="Qq9gBeHtFWUo-H4OvYCq-6">
          <mxGeometry width="50" height="50" relative="1" as="geometry">
            <mxPoint x="850" y="140" as="sourcePoint" />
            <mxPoint x="900" y="90" as="targetPoint" />
            <Array as="points">
              <mxPoint x="810" y="40" />
              <mxPoint x="900" y="40" />
              <mxPoint x="900" />
            </Array>
          </mxGeometry>
        </mxCell>
        <mxCell id="Qq9gBeHtFWUo-H4OvYCq-9" value="Public subnet" style="points=[[0,0],[0.25,0],[0.5,0],[0.75,0],[1,0],[1,0.25],[1,0.5],[1,0.75],[1,1],[0.75,1],[0.5,1],[0.25,1],[0,1],[0,0.75],[0,0.5],[0,0.25]];outlineConnect=0;gradientColor=none;html=1;whiteSpace=wrap;fontSize=12;fontStyle=0;container=1;pointerEvents=0;collapsible=0;recursiveResize=0;shape=mxgraph.aws4.group;grIcon=mxgraph.aws4.group_security_group;grStroke=0;strokeColor=#248814;fillColor=#E9F3E6;verticalAlign=top;align=left;spacingLeft=30;fontColor=#248814;dashed=0;" parent="1" vertex="1">
          <mxGeometry x="120" y="230" width="360" height="490" as="geometry" />
        </mxCell>
        <mxCell id="Qq9gBeHtFWUo-H4OvYCq-10" value="Security group" style="fillColor=none;strokeColor=#DD3522;verticalAlign=top;fontStyle=0;fontColor=#DD3522;whiteSpace=wrap;html=1;" parent="Qq9gBeHtFWUo-H4OvYCq-9" vertex="1">
          <mxGeometry x="44" y="60" width="150" height="140" as="geometry" />
        </mxCell>
        <mxCell id="Qq9gBeHtFWUo-H4OvYCq-11" value="" style="sketch=0;points=[[0,0,0],[0.25,0,0],[0.5,0,0],[0.75,0,0],[1,0,0],[0,1,0],[0.25,1,0],[0.5,1,0],[0.75,1,0],[1,1,0],[0,0.25,0],[0,0.5,0],[0,0.75,0],[1,0.25,0],[1,0.5,0],[1,0.75,0]];outlineConnect=0;fontColor=#232F3E;fillColor=#ED7100;strokeColor=#ffffff;dashed=0;verticalLabelPosition=bottom;verticalAlign=top;align=center;html=1;fontSize=12;fontStyle=0;aspect=fixed;shape=mxgraph.aws4.resourceIcon;resIcon=mxgraph.aws4.ec2;" parent="Qq9gBeHtFWUo-H4OvYCq-9" vertex="1">
          <mxGeometry x="80" y="91" width="78" height="78" as="geometry" />
        </mxCell>
        <mxCell id="Qq9gBeHtFWUo-H4OvYCq-22" value="" style="sketch=0;points=[[0,0,0],[0.25,0,0],[0.5,0,0],[0.75,0,0],[1,0,0],[0,1,0],[0.25,1,0],[0.5,1,0],[0.75,1,0],[1,1,0],[0,0.25,0],[0,0.5,0],[0,0.75,0],[1,0.25,0],[1,0.5,0],[1,0.75,0]];outlineConnect=0;fontColor=#232F3E;fillColor=#ED7100;strokeColor=#ffffff;dashed=0;verticalLabelPosition=bottom;verticalAlign=top;align=center;html=1;fontSize=12;fontStyle=0;aspect=fixed;shape=mxgraph.aws4.resourceIcon;resIcon=mxgraph.aws4.ec2;" parent="Qq9gBeHtFWUo-H4OvYCq-9" vertex="1">
          <mxGeometry x="80" y="270" width="78" height="78" as="geometry" />
        </mxCell>
        <mxCell id="Qq9gBeHtFWUo-H4OvYCq-18" value="Security group" style="fillColor=none;strokeColor=#DD3522;verticalAlign=top;fontStyle=0;fontColor=#DD3522;whiteSpace=wrap;html=1;" parent="Qq9gBeHtFWUo-H4OvYCq-9" vertex="1">
          <mxGeometry x="44" y="250" width="150" height="140" as="geometry" />
        </mxCell>
        <mxCell id="Dbp7L5wmr_lRvwFm_IH9-1" value="" style="outlineConnect=0;dashed=0;verticalLabelPosition=bottom;verticalAlign=top;align=center;html=1;shape=mxgraph.aws3.vpc_nat_gateway;fillColor=#F58534;gradientColor=none;" parent="Qq9gBeHtFWUo-H4OvYCq-9" vertex="1">
          <mxGeometry x="270" y="190" width="69" height="72" as="geometry" />
        </mxCell>
        <mxCell id="Dbp7L5wmr_lRvwFm_IH9-2" value="" style="outlineConnect=0;dashed=0;verticalLabelPosition=bottom;verticalAlign=top;align=center;html=1;shape=mxgraph.aws3.route_table;fillColor=#F58536;gradientColor=none;" parent="Qq9gBeHtFWUo-H4OvYCq-9" vertex="1">
          <mxGeometry x="256" y="60" width="75" height="69" as="geometry" />
        </mxCell>
        <mxCell id="Dbp7L5wmr_lRvwFm_IH9-17" value="&lt;font color=&quot;#171717&quot;&gt;Jump_server&lt;/font&gt;" style="text;strokeColor=none;align=center;fillColor=none;html=1;verticalAlign=middle;whiteSpace=wrap;rounded=0;" parent="Qq9gBeHtFWUo-H4OvYCq-9" vertex="1">
          <mxGeometry x="90" y="169" width="60" height="30" as="geometry" />
        </mxCell>
        <mxCell id="Dbp7L5wmr_lRvwFm_IH9-18" value="&lt;font color=&quot;#171717&quot;&gt;Dummy_Server&lt;/font&gt;" style="text;strokeColor=none;align=center;fillColor=none;html=1;verticalAlign=middle;whiteSpace=wrap;rounded=0;" parent="Qq9gBeHtFWUo-H4OvYCq-9" vertex="1">
          <mxGeometry x="78" y="355" width="80" height="30" as="geometry" />
        </mxCell>
        <mxCell id="Dbp7L5wmr_lRvwFm_IH9-19" value="" style="sketch=0;outlineConnect=0;fontColor=#232F3E;gradientColor=none;fillColor=#ED7100;strokeColor=none;dashed=0;verticalLabelPosition=bottom;verticalAlign=top;align=center;html=1;fontSize=12;fontStyle=0;aspect=fixed;pointerEvents=1;shape=mxgraph.aws4.elastic_ip_address;" parent="Qq9gBeHtFWUo-H4OvYCq-9" vertex="1">
          <mxGeometry x="296" y="361" width="48" height="20" as="geometry" />
        </mxCell>
        <mxCell id="Dbp7L5wmr_lRvwFm_IH9-20" value="" style="endArrow=classic;html=1;rounded=0;strokeColor=#171717;strokeWidth=2;" parent="Qq9gBeHtFWUo-H4OvYCq-9" target="Dbp7L5wmr_lRvwFm_IH9-1" edge="1">
          <mxGeometry width="50" height="50" relative="1" as="geometry">
            <mxPoint x="305" y="360" as="sourcePoint" />
            <mxPoint x="344" y="305" as="targetPoint" />
          </mxGeometry>
        </mxCell>
        <mxCell id="Dbp7L5wmr_lRvwFm_IH9-14" value="" style="endArrow=classic;html=1;rounded=0;exitX=1;exitY=0.5;exitDx=0;exitDy=0;exitPerimeter=0;strokeWidth=2;strokeColor=#000000;" parent="1" source="Dbp7L5wmr_lRvwFm_IH9-1" edge="1">
          <mxGeometry width="50" height="50" relative="1" as="geometry">
            <mxPoint x="459" y="443" as="sourcePoint" />
            <mxPoint x="730" y="457.1084598698483" as="targetPoint" />
          </mxGeometry>
        </mxCell>
        <mxCell id="Dbp7L5wmr_lRvwFm_IH9-15" value="" style="endArrow=classic;html=1;rounded=0;strokeWidth=2;strokeColor=#000000;" parent="1" edge="1">
          <mxGeometry width="50" height="50" relative="1" as="geometry">
            <mxPoint x="115" y="446" as="sourcePoint" />
            <mxPoint x="56" y="446" as="targetPoint" />
          </mxGeometry>
        </mxCell>
        <mxCell id="y6qu_ub7xlYDoSG335bv-1" value="" style="endArrow=classic;html=1;rounded=0;strokeColor=#171717;strokeWidth=2;" edge="1" parent="1">
          <mxGeometry width="50" height="50" relative="1" as="geometry">
            <mxPoint x="278" y="375.51619174434086" as="sourcePoint" />
            <mxPoint x="990" y="380" as="targetPoint" />
          </mxGeometry>
        </mxCell>
        <mxCell id="y6qu_ub7xlYDoSG335bv-3" value="" style="endArrow=classic;html=1;rounded=0;entryX=-0.04;entryY=0.5;entryDx=0;entryDy=0;entryPerimeter=0;strokeColor=#000000;strokeWidth=2;" edge="1" parent="1" target="Qq9gBeHtFWUo-H4OvYCq-17">
          <mxGeometry width="50" height="50" relative="1" as="geometry">
            <mxPoint x="860" y="380" as="sourcePoint" />
            <mxPoint x="550" y="410" as="targetPoint" />
            <Array as="points">
              <mxPoint x="860" y="540" />
            </Array>
          </mxGeometry>
        </mxCell>
      </root>
    </mxGraphModel>
  </diagram>
</mxfile>
